# xmcd
#
# Track frame offsets:
# 150
# 34678
# 70023
# 109870
# 132968
# 176152
# 226158
#
# Disc length: 3833 seconds
#
# Revision: 0
# Processed by: cddbd v1.4PL0 Copyright (c) Steve Scherf et al.
# Submitted via: Axialis_AX_CDPlayer 2.6
#
DISCID=570ef707
DTITLE=Rory Gallagher - Live IN Japan 1974 [Vol 1]
DYEAR=1900
DGENRE=
TTITLE0=Messin With The Kid
TTITLE1=Cradle Rock 
TTITLE2=I Wonder Who
TTITLE3=Tattoo' d Lady 
TTITLE4=Walk On Hot Coals
TTITLE5=A Million Miles Away 
TTITLE6=Laundromat
EXTD=
EXTT0=
EXTT1=
EXTT2=
EXTT3=
EXTT4=
EXTT5=
EXTT6=
PLAYORDER=
